# xmcd CD database file
#
# Track frame offsets:
#	182
#	16957
#	30257
#	42632
#	56882
#	69107
#	84032
#	97457
#	113282
#	128507
#	142007
#	157457
#	177782
#	193907
#	208857
#	221957
#	236282
#	248357
#	261257
#	271357
#
# Disc length: 3777 seconds
#
# Revision: 10
# Processed by: cddbd v1.5.2PL0 Copyright (c) Steve Scherf et al.
# Submitted via: CDex 1.51
#
DISCID=1f0ebf14
DTITLE=Duke Ellington - Deluxe Collector's Edition
DYEAR=1995
DGENRE=Jazz
TTITLE0=Sophisticated Lady
TTITLE1=Prelude To A Kiss
TTITLE2=Diminuendo In Blue
TTITLE3=Crescendo In Blue
TTITLE4=Ko-Ko
TTITLE5=Do Nothin' Till You Hear From Me
TTITLE6=Harlem Airshaft
TTITLE7=All Too Soon
TTITLE8=Sepia Panorama
TTITLE9=Across The Track Blues
TTITLE10=Chloe
TTITLE11=Take The ''A'' Train
TTITLE12=Just A-Settin' And A-Rockin'
TTITLE13=I Got It Bad And That Ain't Good
TTITLE14=Things Ain't What They Used To Be
TTITLE15=Perdido
TTITLE16=The ''C'' Jam Blues
TTITLE17=The Hawk Talks
TTITLE18=Soul Call
TTITLE19=Open House
EXTD=YEAR: 1995
EXTT0=
EXTT1=
EXTT2=
EXTT3=
EXTT4=
EXTT5=
EXTT6=
EXTT7=
EXTT8=
EXTT9=
EXTT10=
EXTT11=
EXTT12=
EXTT13=
EXTT14=
EXTT15=
EXTT16=
EXTT17=
EXTT18=
EXTT19=
PLAYORDER=
